<svg xmlns="http://www.w3.org/2000/svg" width="1040" height="460" viewBox="0 0 1040 460" role="img"><rect width="100%" height="100%" fill="#f8fafc" /><style>text{font-family:Arial,sans-serif;fill:#0f172a} .title{font-size:24px;font-weight:bold} .label{font-size:17px} .small{font-size:14px;fill:#475569}</style><defs><marker id="arrow" markerWidth="10" markerHeight="8" refX="8" refY="4" orient="auto"><path d="M0,0 L8,4 L0,8" fill="none" stroke="#64748b" stroke-width="1.5" /></marker></defs><text x="35" y="43" class="title" text-anchor="start" font-family="Arial,sans-serif" font-size="24" fill="#0f172a" font-weight="bold">ISR nesting: exclusive time follows the executing owner</text><text x="45" y="129" class="label" text-anchor="start" font-family="Arial,sans-serif" font-size="17" fill="#0f172a">CPU</text><rect x="150" y="90" width="78" height="65" rx="9" fill="#e2e8f0" stroke="#94a3b8" /><text x="189.0" y="128.5" class="label" text-anchor="middle" font-family="Arial,sans-serif" font-size="17" fill="#0f172a">Idle</text><rect x="230" y="90" width="78" height="65" rx="9" fill="#bfdbfe" stroke="#94a3b8" /><text x="269.0" y="128.5" class="label" text-anchor="middle" font-family="Arial,sans-serif" font-size="17" fill="#0f172a">ISR A</text><rect x="310" y="90" width="78" height="65" rx="9" fill="#fde68a" stroke="#94a3b8" /><text x="349.0" y="128.5" class="label" text-anchor="middle" font-family="Arial,sans-serif" font-size="17" fill="#0f172a">ISR B</text><rect x="390" y="90" width="158" height="65" rx="9" fill="#bfdbfe" stroke="#94a3b8" /><text x="469.0" y="128.5" class="label" text-anchor="middle" font-family="Arial,sans-serif" font-size="17" fill="#0f172a">ISR A</text><rect x="550" y="90" width="398" height="65" rx="9" fill="#e2e8f0" stroke="#94a3b8" /><text x="749.0" y="128.5" class="label" text-anchor="middle" font-family="Arial,sans-serif" font-size="17" fill="#0f172a">Idle</text><line x1="150" y1="157" x2="150" y2="170" stroke="#94a3b8" /><text x="150" y="191" class="small" text-anchor="middle" font-family="Arial,sans-serif" font-size="14" fill="#475569">0</text><line x1="230" y1="157" x2="230" y2="170" stroke="#94a3b8" /><text x="230" y="191" class="small" text-anchor="middle" font-family="Arial,sans-serif" font-size="14" fill="#475569">10</text><line x1="310" y1="157" x2="310" y2="170" stroke="#94a3b8" /><text x="310" y="191" class="small" text-anchor="middle" font-family="Arial,sans-serif" font-size="14" fill="#475569">20</text><line x1="390" y1="157" x2="390" y2="170" stroke="#94a3b8" /><text x="390" y="191" class="small" text-anchor="middle" font-family="Arial,sans-serif" font-size="14" fill="#475569">30</text><line x1="550" y1="157" x2="550" y2="170" stroke="#94a3b8" /><text x="550" y="191" class="small" text-anchor="middle" font-family="Arial,sans-serif" font-size="14" fill="#475569">50</text><line x1="950" y1="157" x2="950" y2="170" stroke="#94a3b8" /><text x="950" y="191" class="small" text-anchor="middle" font-family="Arial,sans-serif" font-size="14" fill="#475569">100</text><text x="995" y="191" class="small" text-anchor="middle" font-family="Arial,sans-serif" font-size="14" fill="#475569">ms</text><rect x="150" y="218" width="800" height="52" rx="9" fill="#fee2e2" stroke="#94a3b8" /><text x="550.0" y="250.0" class="label" text-anchor="middle" font-family="Arial,sans-serif" font-size="17" fill="#0f172a">Naive Idle interval: 100 ms (interrupts wrongly included)</text><rect x="150" y="301" width="480" height="52" rx="9" fill="#e2e8f0" stroke="#94a3b8" /><text x="390.0" y="333.0" class="label" text-anchor="middle" font-family="Arial,sans-serif" font-size="17" fill="#0f172a">Actual Idle: 60 ms</text><rect x="632" y="301" width="318" height="52" rx="9" fill="#bfdbfe" stroke="#94a3b8" /><text x="791.0" y="333.0" class="label" text-anchor="middle" font-family="Arial,sans-serif" font-size="17" fill="#0f172a">Actual ISR: 40 ms</text><text x="40" y="408" class="label" text-anchor="start" font-family="Arial,sans-serif" font-size="17" fill="#0f172a">A inclusive = 40; A exclusive = 30; B exclusive = 10</text><text x="40" y="436" class="small" text-anchor="start" font-family="Arial,sans-serif" font-size="14" fill="#475569">Observed CPU Load: correct 40%; naive Idle-only interval 0%</text></svg>